<svg viewBox="0 0 200 34" fill="none" xmlns="http://www.w3.org/2000/svg"><path d="M16.8496 12.1375C16.8496 19.0839 21.8393 24.0737 28.7858 24.0737C32.5526 24.0737 35.5366 23.1442 37.8358 21.1875C38.2761 20.7961 38.2761 20.2091 37.8358 19.7688L35.3899 17.3229C35.0963 17.0294 34.3136 16.9804 33.9712 17.225C32.4058 18.1545 30.6447 18.5948 28.7858 18.5948C26.7312 18.5948 24.7255 17.5185 24.0407 15.6107C23.7961 14.8769 24.1874 14.5345 24.9212 14.5345H39.2055C39.7926 14.5345 40.2328 14.0942 40.2328 13.5072V12.1375C40.2328 5.23991 35.8301 0.201262 28.7858 0.201262C21.8393 0.201262 16.8496 5.14207 16.8496 12.1375ZM28.7858 5.68018C30.8404 5.68018 33.0418 6.75639 33.482 8.81098C33.6288 9.49585 33.2864 9.74044 32.6015 9.74044H24.9701C24.2853 9.74044 23.9428 9.49585 24.0896 8.81098C24.5299 6.75639 26.7312 5.68018 28.7858 5.68018Z" fill="#FFFDF7"></path><path d="M58.8988 1.22856V1.52207C58.8988 1.81559 58.5564 2.01126 58.3607 1.81559C57.1867 0.886126 55.4745 0.34802 53.1753 0.201262C45.8864 0.00558759 41.6794 5.23991 41.6794 12.1375C41.6794 19.3285 45.2505 24.0737 52.6861 24.0737C54.8386 24.0737 56.7953 23.4377 58.5075 22.2148C58.7031 22.068 58.8988 22.2637 58.8988 22.5083V23.0953C58.8988 26.7153 56.5996 29.0634 52.3926 28.8677C50.2402 28.721 48.3813 28.1829 46.8159 27.2534C46.3756 27.0088 45.6907 27.0577 45.3483 27.4491L43.5383 29.5526C43.1469 29.9929 43.2448 30.6288 43.6851 31.0201C46.1799 33.1237 49.5064 34.3466 53.6645 34.2488C61.198 34.102 65.6007 29.2102 65.6007 22.1658V1.22856C65.6007 0.641532 65.1604 0.201262 64.5734 0.201262H59.9261C59.3391 0.201262 58.8988 0.641532 58.8988 1.22856ZM53.4688 18.5458C49.7999 18.5458 47.4029 15.7575 47.4029 12.1864C47.4029 8.61531 49.7999 5.77801 53.4688 5.77801C57.1377 5.77801 59.5837 8.61531 59.5837 12.1864C59.5837 15.7575 57.1377 18.5458 53.4688 18.5458Z" fill="#FFFDF7"></path><path d="M83.2245 12.1375C83.2245 19.0839 88.2142 24.0737 95.1607 24.0737C98.9274 24.0737 101.912 23.1442 104.211 21.1875C104.651 20.7961 104.651 20.2091 104.211 19.7688L101.765 17.3229C101.471 17.0294 100.689 16.9804 100.346 17.225C98.7807 18.1545 97.0196 18.5948 95.1607 18.5948C93.1061 18.5948 91.1004 17.5185 90.4156 15.6107C90.171 14.8769 90.5623 14.5345 91.2961 14.5345H105.58C106.167 14.5345 106.608 14.0942 106.608 13.5072V12.1375C106.608 5.23991 102.205 0.201262 95.1607 0.201262C88.2142 0.201262 83.2245 5.14207 83.2245 12.1375ZM95.1607 5.68018C97.2153 5.68018 99.4166 6.75639 99.8569 8.81098C100.004 9.49585 99.6612 9.74044 98.9764 9.74044H91.345C90.6602 9.74044 90.3177 9.49585 90.4645 8.81098C90.9048 6.75639 93.1061 5.68018 95.1607 5.68018Z" fill="#FFFDF7"></path><path d="M108.152 12.1375C108.152 19.0839 113.142 24.0737 120.088 24.0737C123.855 24.0737 126.839 23.1442 129.138 21.1875C129.579 20.7961 129.579 20.2091 129.138 19.7688L126.692 17.3229C126.399 17.0294 125.616 16.9804 125.274 17.225C123.708 18.1545 121.947 18.5948 120.088 18.5948C118.034 18.5948 116.028 17.5185 115.343 15.6107C115.099 14.8769 115.49 14.5345 116.224 14.5345H130.508C131.095 14.5345 131.535 14.0942 131.535 13.5072V12.1375C131.535 5.23991 127.133 0.201262 120.088 0.201262C113.142 0.201262 108.152 5.14207 108.152 12.1375ZM120.088 5.68018C122.143 5.68018 124.344 6.75639 124.785 8.81098C124.931 9.49585 124.589 9.74044 123.904 9.74044H116.273C115.588 9.74044 115.245 9.49585 115.392 8.81098C115.832 6.75639 118.034 5.68018 120.088 5.68018Z" fill="#FFFDF7"></path><path d="M141.151 8.56639C142.081 6.90315 143.157 5.97369 144.429 5.82693H144.771C147.902 6.02261 149.321 7.88152 149.321 10.9145V23.0464C149.321 23.6334 149.761 24.0737 150.348 24.0737H154.995C155.582 24.0737 156.023 23.6334 156.023 23.0464V9.25125C156.023 3.96802 152.256 0.201262 146.728 0.201262C144.869 0.201262 143.255 0.690452 141.836 1.66883C141.543 1.91342 141.005 1.66883 141.005 1.27748V1.17964C141.005 0.592614 140.564 0.152344 139.977 0.152344H135.33C134.743 0.152344 134.303 0.592614 134.303 1.17964V23.0464C134.303 23.6334 134.743 24.0737 135.33 24.0737H139.977C140.564 24.0737 141.005 23.6334 141.005 23.0464V9.1045C141.005 9.05558 141.102 8.66423 141.151 8.56639Z" fill="#FFFDF7"></path><path d="M157.96 12.1375C157.96 19.0839 162.949 24.0737 169.896 24.0737C173.662 24.0737 176.647 23.1442 178.946 21.1875C179.386 20.7961 179.386 20.2091 178.946 19.7688L176.5 17.3229C176.206 17.0294 175.424 16.9804 175.081 17.225C173.516 18.1545 171.755 18.5948 169.896 18.5948C167.841 18.5948 165.835 17.5185 165.151 15.6107C164.906 14.8769 165.297 14.5345 166.031 14.5345H180.315C180.902 14.5345 181.343 14.0942 181.343 13.5072V12.1375C181.343 5.23991 176.94 0.201262 169.896 0.201262C162.949 0.201262 157.96 5.14207 157.96 12.1375ZM169.896 5.68018C171.95 5.68018 174.152 6.75639 174.592 8.81098C174.739 9.49585 174.396 9.74044 173.711 9.74044H166.08C165.395 9.74044 165.053 9.49585 165.2 8.81098C165.64 6.75639 167.841 5.68018 169.896 5.68018Z" fill="#FFFDF7"></path><path d="M72.4914 0.197266H67.8918C67.3046 0.197266 66.8643 0.637622 66.8643 1.22476V23.0468C66.8643 23.634 67.3046 24.0743 67.8918 24.0743H72.4914C73.0786 24.0743 73.5189 23.634 73.5189 23.0468V9.64045C73.5189 6.67068 73.5189 23.7632 73.5189 1.22476C73.5189 0.637622 73.0786 0.197266 72.4914 0.197266Z" fill="#FFFDF7"></path><path d="M74.115 10.0901C74.115 10.0901 78.7528 11.0038 81.7023 8.05431C84.6518 5.10482 83.7381 0.46698 83.7381 0.46698C83.7381 0.46698 78.4944 -0.344166 76.1971 1.54601C73.5451 3.72807 74.115 10.0901 74.115 10.0901Z" fill="#00A79D"></path><path d="M188.667 0.197266H184.068C183.48 0.197266 183.04 0.637622 183.04 1.22476V23.0468C183.04 23.634 183.48 24.0743 184.068 24.0743H188.667C189.254 24.0743 189.695 23.634 189.695 23.0468V9.64045C189.695 6.67068 189.695 23.7632 189.695 1.22476C189.695 0.637622 189.254 0.197266 188.667 0.197266Z" fill="#FFFDF7"></path><path d="M190.291 10.0901C190.291 10.0901 194.929 11.0038 197.878 8.05431C200.828 5.10482 199.914 0.46698 199.914 0.46698C199.914 0.46698 194.67 -0.344166 192.373 1.54601C189.721 3.72807 190.291 10.0901 190.291 10.0901Z" fill="#00A79D"></path><path d="M5.62712 0.197266H1.02756C0.440384 0.197266 0 0.637622 0 1.22476V23.0468C0 23.634 0.440384 24.0743 1.02756 24.0743H5.62712C6.2143 24.0743 6.65469 23.634 6.65469 23.0468V9.64045C6.65469 6.67068 6.65469 23.7632 6.65469 1.22476C6.65469 0.637622 6.2143 0.197266 5.62712 0.197266Z" fill="#FFFDF7"></path><path d="M7.2507 10.0901C7.2507 10.0901 11.8885 11.0038 14.838 8.05431C17.7875 5.10482 16.8738 0.46698 16.8738 0.46698C16.8738 0.46698 11.6301 -0.344166 9.33287 1.54601C6.68085 3.72807 7.2507 10.0901 7.2507 10.0901Z" fill="#00A79D"></path></svg>